<?xml version="1.0" encoding="UTF-8" standalone="no"?>
<svg
   viewBox="160 390 517.23 179.008"
   width="517.23"
   height="179.008"
   version="1.1"
   id="svg16"
   sodipodi:docname="logo.svg"
   inkscape:version="1.2.2 (b0a8486541, 2022-12-01)"
   xmlns:inkscape="http://www.inkscape.org/namespaces/inkscape"
   xmlns:sodipodi="http://sodipodi.sourceforge.net/DTD/sodipodi-0.dtd"
   xmlns="http://www.w3.org/2000/svg"
   xmlns:svg="http://www.w3.org/2000/svg">
  <defs
     id="defs20" />
  <sodipodi:namedview
     id="namedview18"
     pagecolor="#ffffff"
     bordercolor="#000000"
     borderopacity="0.25"
     inkscape:showpageshadow="2"
     inkscape:pageopacity="0.0"
     inkscape:pagecheckerboard="0"
     inkscape:deskcolor="#d1d1d1"
     showgrid="false"
     inkscape:zoom="1.8086776"
     inkscape:cx="230.0023"
     inkscape:cy="114.17181"
     inkscape:window-width="1465"
     inkscape:window-height="773"
     inkscape:window-x="50"
     inkscape:window-y="89"
     inkscape:window-maximized="0"
     inkscape:current-layer="svg16" />
  <path
     d="m160.493 483.366 2.37 2.398c16.085 15.915 40.621 18.749 62.035 21.293q3.771.451 7.54.934 5.524.702 11.055 1.375l.148 2.992.227 3.883.21 3.867c.087 3.338.087 3.338 2.415 5.258 2.629.2 5.15.28 7.78.265l2.332.006q2.441.002 4.882-.01c2.496-.011 4.99 0 7.486.012q2.37-.001 4.738-.008l2.27.012c4.215.104 4.215.104 7.512-2.277.3-2.366.495-4.745.625-7.125l.226-3.883.149-2.992c6.863-1.105 13.717-2.094 20.625-2.875 21.558-2.6 43.17-7.298 60.375-21.125a3894 3894 0 0 1 .207 24.124q.028 5.603.094 11.205.064 5.416.078 10.834.011 2.055.043 4.112c.142 9.309-.37 17.585-6.317 25.127l-1.918 1.535-1.894 1.59c-5.455 3.503-9.898 4.847-16.37 4.867l-2.05.018c-2.25.017-4.499.012-6.748.007q-2.43.01-4.86.026c-4.39.022-8.777.025-13.166.023-3.67 0-7.34.01-11.01.017-8.664.02-17.328.022-25.991.016-8.921-.007-17.842.016-26.763.053q-11.51.044-23.02.038c-4.576-.002-9.153.003-13.73.028q-6.46.032-12.92 0-2.362-.005-4.723.016c-10.022.085-18.354-.578-26.076-7.568-7.296-7.356-8.208-15.659-8.206-25.693q.022-2.017.047-4.036.009-2.1.012-4.198c.012-3.655.041-7.31.075-10.964.03-3.74.044-7.481.059-11.222q.05-10.978.147-21.955"
     fill="#2d3e5d"
     id="path2"
     style="fill:#7aaace;fill-opacity:1" />
  <path
     d="m195.971 432.075 5.019-.02c4.527-.018 9.053-.023 13.58-.024q4.246-.002 8.493-.011 14.826-.028 29.653-.025 13.803-.002 27.606-.052 11.87-.038 23.739-.035c4.72 0 9.441-.005 14.162-.027q6.658-.028 13.316-.005 2.439.003 4.876-.014c17.28-.12 17.28-.12 23.58 5.95 5.928 6.703 5.863 12.185 5.873 20.803l.074 3.356c.027 7.582-.843 13.322-5.969 19.11-4.865 4.836-11.126 7.039-17.48 9.284l-3.606 1.282c-17.284 5.752-36.236 8.047-54.394 8.718l-.184-1.933-.254-2.504-.246-2.496c-.106-2.053-.106-2.053-1.316-3.067-2.728-.1-5.43-.14-8.157-.132l-2.477-.003q-2.598-.002-5.195.005c-2.66.005-5.32 0-7.98-.006q-2.518 0-5.035.004l-2.428-.006c-3.664-.334-3.664-.334-6.728 1.139a86 86 0 0 0-.563 4.562l-.254 2.504-.183 1.934c-25.13-.956-58.828-2.681-78-21-6.883-7.858-5.58-19.19-5-29 .88-6.61 3.613-10.246 8.574-14.59 8.127-4.725 17.825-3.707 26.904-3.701"
     fill="#2f405e"
     id="path4"
     style="fill:#7aaace;fill-opacity:1" />
  <path
     d="M503.864 450.229c-6.134.012-6.478.195-6.53 6.316l-.002 2.246q-.024 3.718-.037 7.434l-.013 5.332c-.012 3.693-.024 7.387-.028 11.08-.004 4.818-.015 9.635-.043 14.453q-.034 5.625-.04 11.25l-.007 5.365c-.019 2.582-.038 5.163-.035 7.745l.008 2.36c-.032 2.6.064 4.958.355 7.556l3 2c11.836 3.608 26.003 5.297 37.887 1.043 7.205-3.557 11.848-9.56 14.863-16.918 2.463-7.97 2.99-19.707-.648-27.391-3.97-6.251-8.726-11.785-16.102-13.734-6.789-.596-12.34-.72-18.187 3.062l-2.813 1.938a4098 4098 0 0 0-.437-14.938q-.087-3.195-.184-6.389l-.062-2.013a158 158 0 0 0-.317-6.66c-1.126-1.127-1.126-1.127-6.37-1.137l-2.13.012zm21.113 39.965c1.028-.012 2.175.06 3.516.172 4 2.113 6.408 3.757 8 8 .867 8.193.759 15.125-4 22-3.006 1.945-5.452 2.296-9 2.312l-2.563.05c-3.01-.448-4.236-1.277-6.437-3.362-.837-3.552-.603-7.175-.563-10.813l-.072-2.986c.009-4.65.035-8.13 3.045-11.838 2.974-2.714 4.99-3.5 8.074-3.535m39.605-39.961c-4.197.18-4.197.18-4.236 6.312l.002 2.246c-.01 2.479-.02 4.956-.021 7.434l-.006 5.332q-.012 5.54-.014 11.08c0 4.818-.003 9.635-.02 14.453q-.02 5.625-.023 11.25 0 2.683-.002 5.365a1428 1428 0 0 0-.018 7.745l.006 2.36-.017 2.241c.02 3.39-.225 4.83 2.26 7.315 9.178 2.682 18.133 3.315 27.636 3.203 7.161-.433 14.596-2.874 19.614-8.203 5.57-7.282 8.466-15.386 7.98-24.536l-.23-2.464-.313-3.75c-1.628-7.695-5.07-14.135-11.656-18.579-5.944-3.058-12.47-4.007-19.031-2.671l-8 5-1-30c-2-1-2-1-5.223-1.133l-3.84.008zm23.293 40.113c1.683.031 3.504.414 5.618 1.02 2.735 2.19 4.432 4.865 6 8 .572 7.969.781 14.43-4.5 20.812-2.76 2.185-5.549 2.369-8.938 2.438l-2.309.078c-2.902-.423-4.126-1.323-6.253-3.328-.837-3.552-.603-7.175-.563-10.813l-.072-2.986c.009-4.65.035-8.13 3.045-11.838 2.748-2.508 5.168-3.435 7.972-3.383M463.49 475.81c-8.723-.136-17.113 3.442-23.997 10.556-5.84 7.068-6.439 15.178-6.247 24.078.65 7.72 3.577 14.555 9.247 19.922 8.42 6.094 16.804 7.424 27 6 6.763-1.767 12.664-4.291 16.82-10.094l1.18-1.906c3.557-5.102 4.251-9.971 4.414-16.07l.023-2.555c.03-2.405 0-4.777-.137-7.178-.958-7.008-5.01-12.698-10.3-17.197-5.907-3.629-12.033-5.461-18.002-5.555m-.894 14.53c1.863.025 3.839.398 5.897 1.026 3.168 2.288 4.726 5.053 5.812 8.812l.188 3.188.152 2.168c.212 5.054-.243 8.517-3.152 12.832-2.816 3.056-4.912 4.269-9 4.5-4.08-.231-6.23-1.405-9-4.5-2.737-6.688-3.662-15.237-1.243-22.172 2.694-4.284 6.248-5.91 10.346-5.854"
     style="fill:#7aaace;fill-opacity:1"
     id="path6" />
  <path
     d="m626.868 477.178 2.078-.037c3.74-.011 5.357.098 8.547 2.225.935 2.47.935 2.47 1.718 5.566l.887 3.412.895 3.584q.886 3.471 1.78 6.941l.865 3.36c.955 3.506 2.07 6.924 3.303 10.341.709 2.308.783 4.4.552 6.796h2l.334-1.974c1.257-7.19 2.836-14.258 4.603-21.339l.764-3.166c3.05-12.273 3.05-12.273 6.299-15.521a185 185 0 0 1 7.562-.063l2.154.014q2.642.02 5.284.049c1.037 3.175.956 5.008-.093 8.163l-.8 2.461-.897 2.645-.91 2.767c-.965 2.929-1.945 5.852-2.925 8.776q-.957 2.89-1.91 5.78a2992 2992 0 0 1-3.735 11.226 1219 1219 0 0 0-3.207 9.703l-.675 2.065a2590 2590 0 0 0-1.733 5.326c-3.397 9.402-8.249 18.022-17.315 22.76-4.072 1.654-7.83 1.706-12.175 1.578l-2.192-.016c-5.278-.08-5.278-.08-6.433-1.234-.1-1.998-.13-4-.125-6l-.008-3.313c.132-2.687.132-2.687 1.132-3.687 2.081-.27 4.165-.517 6.25-.75 4.241-.632 6.395-1 9.938-3.5 1.891-2.87 2.962-5.427 3.812-8.75l-2.25-.688c-4.687-2.237-6.695-5.802-8.473-10.533q-.863-2.49-1.695-4.99l-.917-2.686q-.954-2.804-1.893-5.613c-.955-2.853-1.927-5.7-2.903-8.545l-1.85-5.469-.873-2.56c-1.544-4.645-2.736-9.028-3.146-13.916 1.973-1.973 5.685-1.185 8.375-1.188z"
     fill="#2c3e5c"
     id="path8"
     style="fill:#7aaace;fill-opacity:1" />
  <path
     d="m249.63 390.162 3.258-.017q3.407-.014 6.815-.02c3.448-.01 6.895-.04 10.342-.072q3.324-.01 6.647-.016l3.085-.037c10.111.03 18.935 1.78 26.77 8.393 4.425 4.487 7.843 9.69 8.043 16.11l-.097 9.863h-19l-1-9c-1.655-3.244-1.655-3.244-5-5-3.903-.707-7.73-.677-11.688-.63l-3.44-.006q-3.596 0-7.192.039c-3.668.034-7.333.02-11 0q-3.497.012-6.993.03l-3.321-.015c-6.063.083-6.063.083-11.553 2.442-2.294 2.707-2.5 4.373-2.626 7.89l-.187 5.25h-19c-.771-17.114-.771-17.114 5-24 9.297-9.92 19.037-11.15 32.136-11.203z"
     fill="#314361"
     id="path10"
     style="fill:#7aaace;fill-opacity:1" />
  <path
     d="m414.68 450.1 3.813.016 3.812-.016c3.188.266 3.188.266 5.188 2.266.254 2.495.254 2.495.258 5.683l.02 3.613-.013 3.926.006 4.03q.005 4.233-.01 8.466c-.012 3.595-.006 7.19.006 10.786q.009 4.169 0 8.336c-.002 1.964.004 3.927.01 5.89-.05 9.688-.543 18.21-6.277 26.27-6.22 5.704-12.766 7.35-21.125 7.312l-2.13.049c-3.07.003-5.425-.21-8.214-1.533-2.11-2.518-2.002-4.144-1.906-7.391l.039-2.941c.336-2.496.336-2.496 2.336-4.496 3.004-.103 5.956.07 8.957.222 3.518-.257 5.269-1.076 8.043-3.222 1.075-3.228 1.144-5.606 1.173-9l.041-3.742.015-1.997q.027-3.094.065-6.19.106-8.797.182-17.596.049-5.384.12-10.767.025-2.054.038-4.107c.012-1.91.037-3.82.063-5.73l.03-3.297c.423-3.996 1.536-4.513 5.46-4.84"
     fill="#2e3f5d"
     id="path12"
     style="fill:#7aaace;fill-opacity:1" />
  <path
     d="M223.493 396.366c0 3 0 3-1.313 4.605l-1.687 1.582-1.688 1.606-1.312 1.207-2-1q1.432-1.724 2.875-3.438l1.617-1.934c1.508-1.628 1.508-1.628 3.508-2.628"
     fill="#344662"
     id="path14"
     style="fill:#7aaace;fill-opacity:1" />
</svg>
