<?xml version="1.0" encoding="UTF-8" standalone="no"?>
<svg
   width="477"
   height="383"
   version="1.1"
   id="svg8"
   sodipodi:docname="icon.svg"
   inkscape:version="1.2.2 (b0a8486541, 2022-12-01)"
   xmlns:inkscape="http://www.inkscape.org/namespaces/inkscape"
   xmlns:sodipodi="http://sodipodi.sourceforge.net/DTD/sodipodi-0.dtd"
   xmlns="http://www.w3.org/2000/svg"
   xmlns:svg="http://www.w3.org/2000/svg">
  <defs
     id="defs12" />
  <sodipodi:namedview
     id="namedview10"
     pagecolor="#ffffff"
     bordercolor="#000000"
     borderopacity="0.25"
     inkscape:showpageshadow="2"
     inkscape:pageopacity="0.0"
     inkscape:pagecheckerboard="0"
     inkscape:deskcolor="#d1d1d1"
     showgrid="false"
     inkscape:zoom="1.1279374"
     inkscape:cx="215.88077"
     inkscape:cy="140.52198"
     inkscape:window-width="1920"
     inkscape:window-height="1043"
     inkscape:window-x="0"
     inkscape:window-y="0"
     inkscape:window-maximized="1"
     inkscape:current-layer="svg8" />
  <path
     d="m0 183 4.311 1.424c.8.265 1.6.53 2.425.801 2.742.939 5.402 2.035 8.076 3.15 24.45 9.365 51.436 12.171 77.376 14.375l2.098.179c20.145 1.683 40.321 2.25 60.527 2.633l6.505.131q7.842.158 15.682.307l.173 3.534.245 4.638.111 2.324c.423 7.752 1.597 14.947 7.471 20.504 5.429 3.454 10.093 4.596 16.46 4.594l2.438.045c2.636.045 5.27.061 7.907.076q2.772.033 5.543.072 5.798.07 11.595.107c4.932.032 9.862.095 14.793.168 3.815.054 7.629.092 11.443.126q2.727.027 5.452.066c15.74.564 15.74.564 29.807-5.629 4.773-4.89 6.543-9.238 6.878-15.953l.127-2.422.12-2.5.13-2.547q.158-3.1.307-6.203c7.895-1.098 15.76-1.197 23.714-1.33 49.048-.89 102.274-1.857 148.286-20.67a701 701 0 0 1 6-2q.036 27.906.052 55.813.007 12.96.023 25.923.015 11.317.02 22.633 0 5.974.01 11.95c.018 9.894-.003 19.787-.105 29.681l-.038 3.744a802 802 0 0 1-.218 10.28l-.042 2.96c-.375 10.816-4.442 20.151-12.327 27.641-7.285 6.166-15.912 8.496-25.28 8.51l-2.116.006q-3.525.009-7.052.006l-5.093.011q-7.013.014-14.024.017-7.558.007-15.115.022c-12.174.02-24.347.03-36.52.039l-17.2.015a111509 111509 0 0 1-75.74.046c-19.912.008-39.823.033-59.734.066q-30.665.049-61.33.054c-11.478.002-22.955.01-34.433.036q-14.664.034-29.329.02a3111 3111 0 0 0-14.957.017q-6.855.026-13.711.001-2.472-.004-4.943.014c-12.722.086-24.818-.942-34.864-9.587-7.835-7.771-11.648-16.18-12.057-27.249l.003-3.693-.003-2.07q0-3.413.01-6.825l-.001-4.91q.001-6.65.013-13.3c.006-4.636.006-9.273.008-13.909q.004-13.164.021-26.328.016-14.988.022-29.978Q-.034 213.828 0 183"
     fill="#bbbaba"
     id="path2"
     style="fill:#9cd5ff;fill-opacity:1" />
  <path
     d="M207.043-.496q3.63 0 7.26-.005 7.572 0 15.146.034c6.449.029 12.897.026 19.346.013 4.989-.007 9.978.001 14.966.014q3.567.006 7.132 0c3.328-.002 6.655.014 9.983.036l2.93-.014c14.319.154 26.588 5.181 36.936 15.043 10.414 10.954 12.43 22.729 12.863 37.344l.122 3.51q.145 4.26.273 8.521l3.709-.007q17.366-.03 34.733-.045 8.926-.007 17.853-.023 8.626-.016 17.253-.02 3.279-.003 6.558-.01C452.487 63.802 452.487 63.802 465 75c14.743 15.414 11.235 38.029 11.037 57.764a921 921 0 0 0-.043 8.527 681 681 0 0 1-.094 10.413c-.025 1.95-.02 3.9-.017 5.85-.191 8.729-.191 8.729-3.438 12.094L469 171l-1.825.76c-2.037.812-4.087 1.505-6.175 2.178l-2.372.769C407.358 190.844 351.184 190.253 298 190l-.38-2.703-.518-3.547-.506-3.516c-.931-5.052-2.317-8.443-6.494-11.726-6.148-4.045-11.02-4.659-18.34-4.67l-2.51-.014q-4.104-.021-8.209-.027l-5.717-.017q-5.992-.015-11.986-.02c-5.111-.006-10.222-.03-15.333-.058-3.937-.019-7.874-.024-11.811-.026q-2.826-.004-5.651-.024c-2.64-.017-5.28-.015-7.92-.008l-2.34-.028c-7.238.055-12.992 2.238-18.285 7.384-2.794 4.035-3.385 7.954-4.082 12.723l-.527 3.558L177 190c-52.145.603-106.682-.142-157.187-14.5l-2.916-.825-2.752-.831-2.364-.713C7.654 171.453 3.856 169.219 0 167q-.106-13.627-.155-27.254-.022-6.328-.071-12.657c-.033-4.079-.05-8.157-.059-12.235q-.008-2.325-.032-4.648C-.447 97.381.95 86.481 9 76c7.123-7.262 17.074-11.568 27.255-12.123l2.332.003 2.699-.004 2.92.01h3.106c3.382 0 6.763.009 10.145.016l7.041.005q9.26.006 18.52.024 9.45.014 18.902.02 18.54.016 37.08.049l.065-1.995c.102-3.016.216-6.032.33-9.048l.101-3.139c.582-14.874 5.254-27.646 16.324-38.005C171.07-.87 188.215-.595 207.043-.498m7.653 35.515c-4.92.042-9.839.125-14.758.231l-3.727.042c-8.364.2-8.364.2-15.211 4.708-4.49 7.863-4.49 7.863-3 26h118c1.416-17.286 1.416-17.286-3-25-6.366-5.745-11.373-5.305-19.687-5.562l-1.978-.064c-18.879-.59-37.754-.51-56.639-.355"
     fill="#bbbaba"
     id="path4"
     style="fill:#9cd5ff;fill-opacity:1" />
  <path
     d="M195 179q16.597-.034 33.196-.052 7.707-.007 15.413-.023 7.43-.016 14.86-.02 2.843-.003 5.684-.01 3.965-.01 7.93-.009l2.398-.01c5.405.01 5.405.01 6.519 1.124a64 64 0 0 1 .13 4.32l.009 2.781-.006 3.024.003 3.083q0 3.232-.006 6.466-.005 4.967.007 9.935 0 3.133-.004 6.266l.006 3.024-.01 2.78-.002 2.461C281 226 281 226 280 227c-2.606.106-5.186.147-7.793.145l-2.473.01q-4.068.013-8.136.013l-5.632.01q-5.91.009-11.82.007c-5.06 0-10.118.014-15.177.031q-5.817.015-11.635.013-2.798 0-5.597.013c-2.605.01-5.21.007-7.815 0-.777.007-1.553.012-2.354.018-5.34-.032-5.34-.032-7.568-2.26-.243-3.05-.243-3.05-.23-6.957v-2.118q.006-2.23.024-4.46c.018-2.23.02-4.46.02-6.69.03-8.645.466-17.157 1.186-25.775"
     fill="#bcbbbb"
     id="path6"
     style="fill:#9cd5ff;fill-opacity:1" />
</svg>
