<?xml version="1.0" encoding="UTF-8" standalone="no"?>
<svg
   version="1.1"
   viewBox="160 390 517.2298 179.00841"
   id="svg36"
   sodipodi:docname="logo.svg"
   inkscape:version="1.2.2 (b0a8486541, 2022-12-01)"
   width="517.2298"
   height="179.00841"
   xmlns:inkscape="http://www.inkscape.org/namespaces/inkscape"
   xmlns:sodipodi="http://sodipodi.sourceforge.net/DTD/sodipodi-0.dtd"
   xmlns="http://www.w3.org/2000/svg"
   xmlns:svg="http://www.w3.org/2000/svg">
  <defs
     id="defs40" />
  <sodipodi:namedview
     id="namedview38"
     pagecolor="#ffffff"
     bordercolor="#000000"
     borderopacity="0.25"
     inkscape:showpageshadow="2"
     inkscape:pageopacity="0.0"
     inkscape:pagecheckerboard="true"
     inkscape:deskcolor="#d1d1d1"
     showgrid="false"
     inkscape:zoom="1.1025"
     inkscape:cx="320.18141"
     inkscape:cy="201.81406"
     inkscape:window-width="960"
     inkscape:window-height="1043"
     inkscape:window-x="960"
     inkscape:window-y="0"
     inkscape:window-maximized="0"
     inkscape:current-layer="svg36" />
  <path
     d="m 160.49254,483.36554 c 0.7823,0.79148 1.5646,1.58297 2.3706,2.39844 16.08513,15.91486 40.62123,18.74879 62.03467,21.29297 2.51502,0.29911 5.02763,0.61333 7.54004,0.93359 3.68363,0.46893 7.36855,0.92611 11.05469,1.375 0.049,0.98742 0.098,1.97484 0.14844,2.99219 0.11214,1.92199 0.11214,1.92199 0.22656,3.88281 0.10441,1.91426 0.10441,1.91426 0.21094,3.86719 0.0865,3.33843 0.0865,3.33843 2.41406,5.25781 2.6294,0.19965 5.1512,0.27984 7.78125,0.26562 0.76929,0.002 1.53858,0.004 2.33118,0.006 1.6274,0.001 3.25481,-0.002 4.8822,-0.0107 2.49553,-0.0107 4.99033,-10e-5 7.48584,0.0127 1.57943,-0.001 3.15886,-0.004 4.73828,-0.008 1.12348,0.006 1.12348,0.006 2.26965,0.0123 4.21471,0.10398 4.21471,0.10398 7.5116,-2.27789 0.3006,-2.36509 0.49515,-4.74442 0.625,-7.125 0.0748,-1.28133 0.14953,-2.56265 0.22656,-3.88281 0.0735,-1.48116 0.0735,-1.48116 0.14844,-2.99221 6.86318,-1.10469 13.71705,-2.0935 20.625,-2.875 21.55847,-2.59999 43.17072,-7.29713 60.375,-21.125 0.0931,8.04141 0.16397,16.0826 0.20725,24.12442 0.0208,3.73509 0.0489,7.46981 0.0945,11.20468 0.0438,3.61159 0.0675,7.22283 0.0778,10.83466 0.007,1.37059 0.0216,2.74116 0.0434,4.1116 0.14184,9.30895 -0.36963,17.58489 -6.31745,25.12698 -0.63293,0.5066 -1.26586,1.01321 -1.91797,1.53516 -0.6252,0.52465 -1.25039,1.0493 -1.89453,1.58984 -5.45406,3.50286 -9.89763,4.84704 -16.36946,4.86707 -1.01519,0.009 -1.01519,0.009 -2.0509,0.0185 -2.24913,0.0165 -4.49769,0.0119 -6.74688,0.007 -1.62026,0.007 -3.24051,0.0159 -4.86076,0.0257 -4.38859,0.0222 -8.777,0.0251 -13.16564,0.0232 -3.67026,-1.2e-4 -7.34047,0.009 -11.01072,0.0168 -8.66343,0.0192 -17.32677,0.0221 -25.99022,0.0154 -8.92114,-0.007 -17.84186,0.0162 -26.76292,0.0533 -7.67329,0.0308 -15.34645,0.0421 -23.01981,0.0382 -4.57672,-0.002 -9.15313,0.003 -13.72979,0.0279 -4.30696,0.0223 -8.61325,0.0203 -12.92021,7e-5 -1.5745,-0.003 -3.14905,0.002 -4.7235,0.016 -10.02165,0.085 -18.35358,-0.57834 -26.07593,-7.56763 -7.29535,-7.35622 -8.20795,-15.65906 -8.20615,-25.69383 0.0153,-1.34505 0.031,-2.69009 0.0469,-4.03514 0.006,-1.3996 0.01,-2.79922 0.0129,-4.19883 0.0114,-3.65464 0.0408,-7.30891 0.0741,-10.9634 0.0309,-3.74079 0.0444,-7.48165 0.0595,-11.22253 0.032,-7.31853 0.0831,-14.63675 0.14649,-21.95508 z"
     fill="#2d3e5d"
     id="path6" />
  <path
     d="m 195.97106,432.07501 c 1.67291,-0.006 3.34582,-0.0128 5.01872,-0.0204 4.52679,-0.0176 9.05351,-0.0223 13.58034,-0.0236 2.83102,-0.001 5.66203,-0.006 8.49306,-0.011 9.88418,-0.0185 19.76831,-0.0267 29.65251,-0.0251 9.20231,0.001 18.40438,-0.0199 27.60663,-0.0515 7.91276,-0.0262 15.82544,-0.0369 23.73824,-0.0356 4.72081,5.1e-4 9.4414,-0.005 14.16216,-0.0264 4.43902,-0.0194 8.87763,-0.0195 13.31666,-0.005 1.62534,0.002 3.2507,-0.003 4.87599,-0.0147 17.27976,-0.12042 17.27976,-0.12042 23.57872,5.95106 5.92862,6.70227 5.86356,12.18455 5.87345,20.80268 0.0245,1.1073 0.049,2.21461 0.0742,3.35547 0.0271,7.5825 -0.84315,13.32206 -5.96875,19.11059 -4.86503,4.83535 -11.12563,7.03851 -17.48047,9.28394 -1.1898,0.42281 -2.37961,0.84562 -3.60546,1.28125 -17.28388,5.75256 -36.23614,8.04746 -54.39454,8.71875 -0.0606,-0.63809 -0.12117,-1.27618 -0.18359,-1.9336 -0.0838,-0.82629 -0.16758,-1.65258 -0.25391,-2.5039 -0.0812,-0.82371 -0.16242,-1.64743 -0.24609,-2.4961 -0.10572,-2.05302 -0.10572,-2.05302 -1.31641,-3.0664 -2.72724,-0.101 -5.42862,-0.13971 -8.15625,-0.13282 -0.81746,-9.5e-4 -1.63493,-0.002 -2.47717,-0.003 -1.73173,-6.8e-4 -3.46346,0.001 -5.19519,0.005 -2.66005,0.005 -5.31993,6e-5 -7.97998,-0.006 -1.67839,6.6e-4 -3.35677,0.002 -5.03516,0.004 -0.80103,-0.002 -1.60206,-0.004 -2.42737,-0.006 -3.6647,-0.33319 -3.6647,-0.33319 -6.72888,1.13895 -0.23193,1.5147 -0.41215,3.03755 -0.5625,4.5625 -0.0838,0.82629 -0.16758,1.65258 -0.2539,2.50391 -0.0606,0.63808 -0.12118,1.27617 -0.1836,1.93359 -25.12993,-0.95513 -58.82786,-2.68086 -78,-21 -6.88224,-7.85723 -5.57995,-19.18905 -5,-29 0.88011,-6.60962 3.61332,-10.2452 8.57422,-14.58984 8.12754,-4.72473 17.82521,-3.70721 26.90432,-3.70072 z"
     fill="#2f405e"
     id="path8" />
  <path
     id="path12"
     d="m 503.86363,450.22882 c -6.13321,0.0118 -6.47725,0.19505 -6.5293,6.31641 l -0.002,2.24609 c -0.0158,2.47826 -0.0303,4.95529 -0.0371,7.43359 -0.004,1.7771 -0.008,3.55494 -0.0137,5.33203 -0.0119,3.69302 -0.0232,7.38705 -0.0274,11.08008 -0.004,4.81802 -0.0147,9.63519 -0.043,14.45313 -0.0221,3.75015 -0.0364,7.49978 -0.041,11.25 -7.4e-4,1.78836 -0.003,3.57687 -0.006,5.36523 -0.019,2.58173 -0.0382,5.16234 -0.0352,7.74414 l 0.008,2.36133 c -0.0324,2.59883 0.0637,4.95741 0.35547,7.55469 l 3,2 c 11.83539,3.60855 26.00303,5.29713 37.88672,1.04297 7.20532,-3.55605 11.84763,-9.56033 14.86328,-16.91797 2.46257,-7.96952 2.98977,-19.70619 -0.64843,-27.39063 -3.97046,-6.25135 -8.72634,-11.78503 -16.10157,-13.73437 -6.78897,-0.59598 -12.34113,-0.72045 -18.1875,3.0625 l -2.8125,1.9375 c -0.0981,-3.53854 -0.19937,-7.07696 -0.30664,-10.61524 -0.0441,-1.44074 -0.0877,-2.88149 -0.13086,-4.32226 -0.0587,-2.12969 -0.11803,-4.25918 -0.18359,-6.38867 l -0.0625,-2.01368 c -0.0651,-2.2216 -0.15767,-4.44327 -0.31641,-6.66015 -1.12661,-1.12661 -1.12661,-1.12662 -6.37109,-1.13672 l -2.12891,0.0117 z m 21.11328,39.96484 c 1.02804,-0.0117 2.17529,0.0602 3.51562,0.17188 4.00082,2.11364 6.40888,3.757 8,8 0.86781,8.19372 0.75919,15.12562 -4,22 -3.00514,1.94564 -5.45164,2.29627 -9,2.3125 l -2.5625,0.0508 c -3.00994,-0.4486 -4.23564,-1.27819 -6.4375,-3.36328 -0.83638,-3.55108 -0.60247,-7.17451 -0.5625,-10.8125 l -0.0723,-2.98633 c 0.009,-4.65044 0.0349,-8.13044 3.04492,-11.83789 2.97428,-2.71409 4.9901,-3.50022 8.07422,-3.53516 z"
     style="fill:#2c3e5c;fill-opacity:1" />
  <path
     id="path14"
     d="m 564.58238,450.23273 c -4.19754,0.18042 -4.19739,0.18101 -4.23633,6.3125 l 0.002,2.24609 c -0.0107,2.47827 -0.0193,4.95531 -0.0215,7.4336 -7.4e-4,1.77709 -0.003,3.55494 -0.006,5.33203 -0.007,3.69302 -0.0134,7.38705 -0.0137,11.08008 7.6e-4,4.81796 -0.003,9.63519 -0.0195,14.45312 -0.0134,3.75014 -0.0219,7.49984 -0.0234,11.25 2.5e-4,1.78837 -7.6e-4,3.57687 -0.002,5.36524 -0.0112,2.58164 -0.0213,5.16247 -0.0176,7.74414 l 0.006,2.36132 -0.0176,2.24024 c 0.0211,3.39024 -0.22478,4.82991 2.25977,7.31445 9.17888,2.6823 18.13337,3.31593 27.63672,3.20313 7.16111,-0.4325 14.59573,-2.87361 19.61328,-8.20313 5.56968,-7.28104 8.46615,-15.38593 7.98047,-24.53515 l -0.23047,-2.46485 -0.3125,-3.75 c -1.62773,-7.69471 -5.06977,-14.13486 -11.65626,-18.57812 -5.94396,-3.05813 -12.46903,-4.00755 -19.03125,-2.67188 l -8,5 -1,-30 c -1.99999,-1 -2,-1 -5.22265,-1.13281 l -3.83985,0.008 z m 23.29297,40.11328 c 1.68267,0.031 3.504,0.41368 5.61718,1.01953 2.73578,2.19119 4.43294,4.86586 6,8 0.57239,7.96931 0.78167,14.43049 -4.5,20.8125 -2.76035,2.18529 -5.54832,2.36892 -8.9375,2.4375 l -2.30859,0.0781 c -2.90235,-0.42252 -4.12619,-1.32297 -6.25391,-3.32812 -0.83638,-3.55108 -0.60247,-7.17451 -0.5625,-10.8125 l -0.0723,-2.98633 c 0.009,-4.65044 0.0349,-8.13044 3.04493,-11.83789 2.74832,-2.5079 5.1682,-3.43447 7.97265,-3.38282 z"
     style="fill:#2c3e5c;fill-opacity:1" />
  <path
     id="path16"
     d="m 463.49059,475.81085 c -8.72408,-0.13692 -17.11355,3.44071 -23.99805,10.55469 -5.83883,7.06805 -6.4381,15.17797 -6.2461,24.07812 0.65027,7.7206 3.57626,14.55578 9.2461,19.92188 8.4201,6.09418 16.80469,7.42411 27,6 6.76362,-1.76644 12.66472,-4.29068 16.82031,-10.09375 l 1.17969,-1.90625 c 3.55745,-5.10126 4.25192,-9.97055 4.41406,-16.07031 l 0.0234,-2.55469 c 0.0301,-2.40484 6.5e-4,-4.77658 -0.13672,-7.17773 -0.95824,-7.00738 -5.01026,-12.6975 -10.30078,-17.19727 -5.90682,-3.62823 -12.03285,-5.461 -18.00195,-5.55469 z m -0.89454,14.5293 c 1.86288,0.0252 3.83881,0.39818 5.89649,1.02539 3.16822,2.28857 4.72656,5.05347 5.8125,8.8125 l 0.1875,3.1875 0.15234,2.16797 c 0.21166,5.05446 -0.24265,8.51766 -3.15234,12.83203 -2.81515,3.05644 -4.9111,4.26899 -9,4.5 -4.07901,-0.23089 -6.23032,-1.40448 -9,-4.5 -2.7366,-6.68733 -3.66194,-15.23692 -1.24219,-22.17188 2.69341,-4.284 6.24738,-5.90895 10.3457,-5.85351 z"
     style="fill:#2c3e5c;fill-opacity:1" />
  <path
     d="m 626.86754,477.17804 c 0.68578,-0.0122 1.37156,-0.0245 2.07812,-0.0371 3.73985,-0.0109 5.35685,0.0979 8.54688,2.22461 0.93555,2.47095 0.93555,2.47095 1.71875,5.56641 0.43892,1.68899 0.43892,1.68899 0.88672,3.41211 0.29519,1.18271 0.59039,2.36542 0.89453,3.58398 0.5912,2.31445 1.1849,4.62827 1.78125,6.94141 0.28512,1.10883 0.57025,2.21767 0.86401,3.3601 0.95549,3.50565 2.07103,6.92355 3.30322,10.34058 0.70897,2.30797 0.78328,4.40055 0.55152,6.79541 0.66,0 1.32,0 2,0 0.16544,-0.97683 0.16544,-0.97683 0.33423,-1.97339 1.25743,-7.18995 2.83644,-14.25843 4.60327,-21.33911 0.25201,-1.04479 0.50402,-2.08957 0.76367,-3.16602 3.05081,-12.27346 3.05081,-12.27346 6.29883,-15.52148 2.53049,-0.0731 5.03305,-0.0925 7.5625,-0.0625 1.06638,0.007 1.06638,0.007 2.1543,0.0137 1.7611,0.0118 3.52216,0.0298 5.2832,0.0488 1.03727,3.17567 0.95597,5.00868 -0.0923,8.16333 -0.26423,0.81217 -0.52846,1.62435 -0.80069,2.46114 -0.44356,1.3093 -0.44356,1.3093 -0.89609,2.64506 -0.45045,1.36979 -0.45045,1.36979 -0.91,2.76726 -0.9656,2.92856 -1.94554,5.85208 -2.92594,8.77571 -0.63767,1.92612 -1.2744,3.85255 -1.91016,5.7793 -1.23748,3.74488 -2.48258,7.48709 -3.73486,11.22705 -1.0813,3.23007 -2.15188,6.46312 -3.20606,9.70215 -0.33455,1.02235 -0.33455,1.02235 -0.67587,2.06535 -0.58006,1.7747 -1.1566,3.55054 -1.73282,5.32649 -3.39644,9.40193 -8.24868,18.02137 -17.31445,22.75903 -4.07236,1.65466 -7.83062,1.70616 -12.17578,1.57813 -0.72317,-0.005 -1.44633,-0.0103 -2.19141,-0.0156 -5.27844,-0.0792 -5.27844,-0.0792 -6.43359,-1.23437 -0.0987,-1.998 -0.12972,-3.99957 -0.125,-6 -0.003,-1.09313 -0.005,-2.18625 -0.008,-3.3125 0.13281,-2.6875 0.13281,-2.6875 1.13281,-3.6875 2.08078,-0.27039 4.16478,-0.51623 6.25,-0.75 4.241,-0.63174 6.39459,-0.99912 9.9375,-3.5 1.8916,-2.87002 2.96234,-5.42665 3.8125,-8.75 -0.7425,-0.22688 -1.485,-0.45375 -2.25,-0.6875 -4.68719,-2.23707 -6.69542,-5.8022 -8.47339,-10.53272 -0.57575,-1.65983 -1.14002,-3.32368 -1.69458,-4.99072 -0.45407,-1.32954 -0.45407,-1.32954 -0.91731,-2.68594 -0.63591,-1.8693 -1.26681,-3.74031 -1.89299,-5.61289 -0.95504,-2.8527 -1.92748,-5.69902 -2.90259,-8.54492 -0.61758,-1.82256 -1.23415,-3.64547 -1.84961,-5.46875 -0.28852,-0.84501 -0.57705,-1.69002 -0.87431,-2.56064 -1.54385,-4.64465 -2.7358,-9.02775 -3.14522,-13.91592 1.97299,-1.973 5.68488,-1.185 8.375,-1.1875 z"
     fill="#2c3e5c"
     id="path18" />
  <path
     d="m 249.62926,390.16241 c 1.61283,-0.009 1.61283,-0.009 3.25825,-0.0173 2.2719,-0.009 4.54381,-0.016 6.81572,-0.0198 3.4476,-0.01 6.89459,-0.0407 10.34204,-0.0723 2.2155,-0.007 4.43099,-0.0118 6.64649,-0.0156 1.52714,-0.0185 1.52714,-0.0185 3.08513,-0.0374 10.11109,0.0309 18.93538,1.7795 26.77034,8.39288 4.42489,4.48709 7.84309,9.68939 8.04297,16.10937 -0.0325,3.28776 -0.0651,6.57552 -0.0977,9.86328 -6.27,0 -12.54,0 -19,0 -0.495,-4.455 -0.495,-4.455 -1,-9 -1.65474,-3.24355 -1.65474,-3.24355 -5,-5 -3.90287,-0.70627 -7.73017,-0.67678 -11.6875,-0.6289 -1.13527,-0.002 -2.27053,-0.005 -3.44019,-0.007 -2.39725,9.8e-4 -4.79453,0.0144 -7.19165,0.0393 -3.66777,0.0343 -7.33314,0.0207 -11.00098,0.001 -2.33074,0.007 -4.66147,0.0166 -6.99218,0.0293 -1.09595,-0.005 -2.19189,-0.01 -3.32105,-0.015 -6.06291,0.0824 -6.06291,0.0824 -11.55273,2.44203 -2.29471,2.70676 -2.50064,4.37305 -2.62622,7.8894 -0.0619,1.7325 -0.12375,3.465 -0.1875,5.25 -6.27,0 -12.54,0 -19,0 -0.7709,-17.11395 -0.7709,-17.11395 5,-24 9.29795,-9.92039 19.03748,-11.14897 32.13672,-11.20311 z"
     fill="#314361"
     id="path20" />
  <path
     d="m 414.68004,450.09991 c 1.88719,0.008 1.88719,0.008 3.8125,0.0156 1.25812,-0.005 2.51625,-0.0103 3.8125,-0.0156 3.1875,0.26562 3.1875,0.26562 5.1875,2.26562 0.25397,2.49575 0.25397,2.49575 0.25879,5.68384 0.006,1.19207 0.0126,2.38413 0.0191,3.61232 -0.004,1.29575 -0.008,2.59149 -0.0123,3.9265 0.001,1.34322 0.003,2.68643 0.006,4.02965 0.003,2.82211 -0.001,5.6441 -0.0107,8.4662 -0.0113,3.59534 -0.005,7.19037 0.007,10.7857 0.007,2.77891 0.005,5.55776 -2.6e-4,8.33667 -0.002,1.96345 0.004,3.9269 0.0103,5.89034 -0.0503,9.68751 -0.54348,18.20961 -6.27789,26.26878 -6.21934,5.70485 -12.76528,7.35128 -21.125,7.3125 -1.05381,0.0242 -1.05381,0.0242 -2.12891,0.0488 -3.07106,0.003 -5.42538,-0.20909 -8.21484,-1.5332 -2.10913,-2.51804 -2.00137,-4.1436 -1.90625,-7.39062 0.0129,-0.97067 0.0258,-1.94133 0.0391,-2.94141 0.33594,-2.49609 0.33594,-2.49609 2.33594,-4.49609 3.00403,-0.10206 5.95593,0.0698 8.95703,0.22265 3.51801,-0.25741 5.26907,-1.07625 8.04297,-3.22265 1.07577,-3.22733 1.14392,-5.6052 1.17358,-9.00025 0.0202,-1.8519 0.0202,-1.8519 0.0409,-3.74122 0.005,-0.65893 0.0101,-1.31785 0.0153,-1.99674 0.0164,-2.06338 0.0397,-4.12659 0.0649,-6.18988 0.0707,-5.86543 0.13101,-11.73094 0.18211,-17.59657 0.0317,-3.58917 0.073,-7.17812 0.1202,-10.76712 0.016,-1.36873 0.0283,-2.73751 0.0369,-4.10631 0.0121,-1.91043 0.0373,-3.82077 0.0631,-5.73106 0.0103,-1.08794 0.0206,-2.17587 0.0312,-3.29677 0.42186,-3.99554 1.53495,-4.51268 5.4593,-4.83971 z"
     fill="#2e3f5d"
     id="path24" />
  <path
     d="m 223.49254,396.36554 c 0,3 0,3 -1.3125,4.60547 -0.55688,0.52207 -1.11375,1.04414 -1.6875,1.58203 -0.55688,0.5298 -1.11375,1.05961 -1.6875,1.60547 -0.43313,0.39832 -0.86625,0.79664 -1.3125,1.20703 -0.66,-0.33 -1.32,-0.66 -2,-1 0.95422,-1.14926 1.91352,-2.29431 2.875,-3.4375 0.53367,-0.63809 1.06734,-1.27617 1.61719,-1.93359 1.50781,-1.62891 1.50781,-1.62891 3.50781,-2.62891 z"
     fill="#344662"
     id="path34" />
</svg>
