<?xml version="1.0" encoding="UTF-8"?>
<svg version="1.1" xmlns="http://www.w3.org/2000/svg" viewBox="120 350 600 360">
<path d="M0 0 C1.66889906 -0.005716 3.33779422 -0.01268497 5.00668335 -0.02079773 C9.50283661 -0.03861185 13.99879345 -0.03758266 18.49497128 -0.03185534 C22.26676347 -0.02874532 26.0385189 -0.0348762 29.81030583 -0.04089409 C38.71959751 -0.05490018 47.62879322 -0.05341174 56.53808594 -0.04199219 C65.68636933 -0.03052438 74.83435908 -0.04457313 83.98260379 -0.07138866 C91.87523148 -0.09364553 99.76776767 -0.1001604 107.66042447 -0.09431225 C112.35739507 -0.09096409 117.05417773 -0.09321315 121.75112152 -0.11056328 C126.1738356 -0.12618983 130.59611984 -0.12190561 135.0188179 -0.10325813 C136.6274699 -0.09961473 138.23615489 -0.10255397 139.84477615 -0.11314392 C162.5023631 -0.25073376 184.46559005 5.80201157 201.12988281 21.90405273 C225.13635305 46.23060924 223.32920694 79.05368425 223.27353382 110.88487983 C223.26837379 114.77431472 223.27319212 118.66374149 223.27630615 122.55317688 C223.279916 129.0742058 223.27522467 135.595189 223.265625 142.11621094 C223.25473248 149.60078769 223.25828397 157.08525549 223.26927781 164.56982964 C223.27842018 171.05969779 223.27960276 177.5495336 223.27440047 184.03940612 C223.27132035 187.88782234 223.27076014 191.73618772 223.27747345 195.58460045 C223.32673138 228.44428428 223.26436343 258.83215836 198.77832031 283.66186523 C181.78373029 299.45542416 159.81028119 303.89616457 137.30761719 303.77636719 C135.68296578 303.77880185 134.05831588 303.78252767 132.43367004 303.78742981 C128.06378195 303.79675016 123.69412134 303.78748873 119.32425117 303.77409768 C114.72507875 303.76268471 110.12591594 303.76689824 105.5267334 303.7688446 C97.80701026 303.76972449 90.08737545 303.75871134 82.36767578 303.74023438 C73.47557101 303.71907151 64.58359548 303.71555877 55.69147062 303.72179633 C47.09510329 303.72751497 38.4987809 303.721815 29.90242004 303.71062279 C26.26324115 303.70600978 22.62409005 303.70508851 18.98490906 303.70720863 C14.69032783 303.70910919 10.39587584 303.70085364 6.10132408 303.68514824 C4.53656741 303.68094979 2.97179751 303.68002439 1.40703773 303.68283844 C-22.46341779 303.71921666 -44.92040019 298.90961057 -62.68652344 281.87280273 C-81.31146967 261.95577055 -85.12414581 239.2219498 -85.17211914 212.95288086 C-85.17839925 211.42545422 -85.18504736 209.89802905 -85.19203186 208.37060547 C-85.21289158 203.39218167 -85.22341753 198.4137582 -85.23339844 193.43530273 C-85.23745283 191.70869431 -85.24156994 189.98208603 -85.24574852 188.25547791 C-85.26476086 180.13805072 -85.2789998 172.02063239 -85.28736049 163.90318727 C-85.29711666 154.5895167 -85.32341054 145.27608479 -85.36386138 135.96249819 C-85.39419521 128.72551941 -85.4088456 121.48860839 -85.4121415 114.25156736 C-85.41447235 109.94682372 -85.42317256 105.64233614 -85.44860268 101.33766174 C-85.6020971 73.92568227 -85.12806449 48.76452724 -66.99511719 26.40405273 C-66.22941406 25.41663086 -65.46371094 24.42920898 -64.67480469 23.41186523 C-61.90643738 20.11199251 -58.71184308 17.71651403 -55.18261719 15.27905273 C-54.5609668 14.84455811 -53.93931641 14.41006348 -53.29882812 13.96240234 C-45.84236605 8.82367346 -38.7383824 5.74899036 -29.99511719 3.40405273 C-29.08264599 3.14585219 -28.17017479 2.88765165 -27.23005295 2.62162685 C-18.09272546 0.24311247 -9.35768493 -0.02925856 0 0 Z " fill="#2D3E5C" transform="translate(1082.9951171875,356.595947265625)"/>
<path d="M0 0 C1.485 0.99 1.485 0.99 3 2 C3 2.66 3 3.32 3 4 C3.56589844 4.27070313 4.13179687 4.54140625 4.71484375 4.8203125 C7.09440593 6.04873605 9.30320036 7.43827898 11.5625 8.875 C32.09848103 21.13130082 59.54154174 23.56477787 83 25 C83.04898437 25.84304688 83.09796875 26.68609375 83.1484375 27.5546875 C83.26058594 29.19824219 83.26058594 29.19824219 83.375 30.875 C83.47941406 32.51082031 83.47941406 32.51082031 83.5859375 34.1796875 C83.73253491 37.13046474 83.73253491 37.13046474 86 39 C88.86888581 39.17532289 91.63992645 39.23137614 94.5078125 39.1953125 C95.34843231 39.1924826 96.18905212 39.18965271 97.05514526 39.18673706 C99.74524046 39.1755243 102.4350051 39.15041803 105.125 39.125 C106.94660978 39.1149716 108.76822477 39.10584551 110.58984375 39.09765625 C115.06002358 39.07558142 119.52995571 39.04104434 124 39 C124.33 34.38 124.66 29.76 125 25 C126.62421875 24.85304688 128.2484375 24.70609375 129.921875 24.5546875 C172.262872 20.91800462 172.262872 20.91800462 208 0 C208.09306696 8.69331939 208.16394962 17.3864648 208.20724869 26.0801754 C208.22804004 30.11792085 208.25620073 34.1553231 208.30175781 38.19287109 C208.34552046 42.09623162 208.36920052 45.999264 208.37950897 49.9028511 C208.38684625 51.38507877 208.40117301 52.8672904 208.42292023 54.34937668 C208.55768995 63.92296969 208.21645107 72.55227435 202.140625 80.40234375 C201.51671875 80.90894531 200.8928125 81.41554688 200.25 81.9375 C199.32960938 82.72447266 199.32960938 82.72447266 198.390625 83.52734375 C189.87861219 88.77085491 181.41296891 88.44029773 171.73681641 88.41992188 C170.08685229 88.42726926 168.43689331 88.43585743 166.78694153 88.44558716 C162.32196437 88.46774129 157.85717211 88.47073692 153.39214754 88.46883965 C149.65722381 88.46871966 145.92233886 88.47729506 142.18742597 88.48561716 C133.37199446 88.50482921 124.55665764 88.50774304 115.74121094 88.50097656 C106.66384506 88.49433696 97.58688565 88.51720191 88.50960219 88.55429029 C80.70040829 88.58503316 72.89134485 88.59634237 65.08209169 88.59245348 C60.4248996 88.59039076 55.76802392 88.59579136 51.11088943 88.62034607 C46.72923246 88.64268675 42.3482343 88.64067503 37.96657372 88.62041855 C36.36465501 88.61702142 34.7626913 88.62204138 33.16083336 88.63640213 C23.26928023 88.71891592 14.74297317 88.2219076 7.10164833 81.27388763 C-0.88833159 73.03868048 -0.41027323 63.08111461 -0.29296875 52.34375 C-0.2873649 50.8306114 -0.28309854 49.31746731 -0.28010559 47.80432129 C-0.26871877 43.84554693 -0.23930579 39.88710926 -0.20599365 35.9284668 C-0.17515886 31.87944084 -0.16157176 27.83035983 -0.14648438 23.78125 C-0.11442922 15.85401315 -0.06330882 7.9270486 0 0 Z " fill="#E3E3E3" transform="translate(1048,503)"/>
<path d="M0 0 C0.7822998 0.79148437 1.56459961 1.58296875 2.37060547 2.3984375 C18.45572794 18.31329962 42.991831 21.14723487 64.40527344 23.69140625 C66.92029417 23.9905205 69.43290526 24.30474155 71.9453125 24.625 C75.62894142 25.09393306 79.31386531 25.5511154 83 26 C83.04898438 26.98742187 83.09796875 27.97484375 83.1484375 28.9921875 C83.26058594 30.91417969 83.26058594 30.91417969 83.375 32.875 C83.47941406 34.78925781 83.47941406 34.78925781 83.5859375 36.7421875 C83.67241106 40.08061699 83.67241106 40.08061699 86 42 C88.62940196 42.19965373 91.15120163 42.2798411 93.78125 42.265625 C94.55053833 42.26753845 95.31982666 42.2694519 96.11242676 42.27142334 C97.7398308 42.27278508 99.3672457 42.26908939 100.99462891 42.26074219 C103.49015631 42.25004221 105.98496382 42.26063751 108.48046875 42.2734375 C110.05989743 42.2721159 111.63932566 42.2695535 113.21875 42.265625 C114.34222839 42.27169769 114.34222839 42.27169769 115.48840332 42.27789307 C119.70311148 42.38187202 119.70311148 42.38187202 123 40 C123.30059943 37.63490639 123.49515012 35.25558119 123.625 32.875 C123.69976562 31.59367188 123.77453125 30.31234375 123.8515625 28.9921875 C123.92503906 27.51105469 123.92503906 27.51105469 124 26 C130.86317595 24.89531072 137.71705109 23.90650533 144.625 23.125 C166.18346553 20.52501034 187.79571558 15.82787499 205 2 C205.0931181 10.04141327 205.16397484 18.08259727 205.20724869 26.12441826 C205.22802924 29.8595079 205.25616923 33.5942258 205.30175781 37.32910156 C205.34556031 40.94069135 205.36920859 44.551926 205.37950897 48.16376114 C205.38683928 49.53434964 205.40115198 50.90492106 205.42292023 52.27535629 C205.56476106 61.58430905 205.05329472 69.86025515 199.10546875 77.40234375 C198.47253906 77.90894531 197.83960938 78.41554688 197.1875 78.9375 C196.56230469 79.46214844 195.93710937 79.98679687 195.29296875 80.52734375 C189.83891436 84.03020321 185.39534259 85.37437796 178.92350769 85.39440918 C177.90831518 85.40354584 177.90831518 85.40354584 176.87261373 85.41286707 C174.62347863 85.42940612 172.37491535 85.42473456 170.12573242 85.41992188 C168.50547197 85.4272676 166.88521675 85.43585529 165.26496887 85.44558716 C160.87637561 85.46776088 156.48797034 85.47073586 152.09932876 85.46883965 C148.42907343 85.46871973 144.75885763 85.47729246 141.08861333 85.48561716 C132.42517815 85.50483697 123.76183932 85.50774051 115.09838867 85.50097656 C106.17725095 85.49433923 97.25652705 85.51719095 88.33547324 85.55429029 C80.66217906 85.5850364 72.98901766 85.59634193 65.31566316 85.59245348 C60.73893755 85.59039076 56.16253391 85.59579093 51.58586693 85.62034607 C47.27891005 85.64269159 42.97262335 85.64067109 38.66566277 85.62041855 C37.09115828 85.61702205 35.516608 85.62203863 33.94216537 85.63640213 C23.92054095 85.72147036 15.58860725 85.05809659 7.86625957 78.06880951 C0.57091119 70.71259131 -0.34169324 62.40975344 -0.33988953 52.37498474 C-0.32457692 51.02993397 -0.30892906 49.68488699 -0.29296875 48.33984375 C-0.28736211 46.94023599 -0.28309707 45.54062227 -0.28010559 44.14100647 C-0.26874061 40.48637162 -0.23934742 36.83210378 -0.20599365 33.1776123 C-0.17511085 29.43681805 -0.16156165 25.69596356 -0.14648438 21.95507812 C-0.11446796 14.63655281 -0.06337521 7.31832815 0 0 Z " fill="#2D3E5D" transform="translate(165,490)"/>
<path d="M0 0 C1.67291055 -0.00599058 3.34581834 -0.01279734 5.01872253 -0.02035522 C9.54551599 -0.03796398 14.07223375 -0.04270831 18.59905815 -0.0439868 C21.43008581 -0.04541134 24.2610944 -0.04968657 27.09211731 -0.05498123 C36.97630021 -0.07346132 46.8604293 -0.08165398 56.74462891 -0.08007812 C65.94693763 -0.0788758 75.14901217 -0.10000119 84.35126162 -0.13156545 C92.26402018 -0.1577362 100.17670226 -0.16844516 108.08950377 -0.16716731 C112.81030749 -0.16665811 117.53090274 -0.17231869 122.25166321 -0.19352341 C126.69068072 -0.21292044 131.12929106 -0.21302035 135.56832314 -0.19849014 C137.19365854 -0.19640308 138.81901955 -0.20109684 140.44431114 -0.21321106 C157.7240714 -0.33362899 157.7240714 -0.33362899 164.02303314 5.73784828 C169.95165022 12.44011727 169.88658986 17.9224044 169.89648438 26.54052734 C169.92097656 27.64783203 169.94546875 28.75513672 169.97070312 29.89599609 C169.9977513 37.47850086 169.12754957 43.21806072 164.00195312 49.0065918 C159.13692297 53.84193757 152.87631963 56.04510424 146.52148438 58.29052734 C145.33167969 58.71333984 144.141875 59.13615234 142.91601562 59.57177734 C125.63214244 65.32433587 106.67987762 67.61923739 88.52148438 68.29052734 C88.46089844 67.65244141 88.4003125 67.01435547 88.33789062 66.35693359 C88.25410156 65.53064453 88.1703125 64.70435547 88.08398438 63.85302734 C88.00277344 63.02931641 87.9215625 62.20560547 87.83789062 61.35693359 C87.73217623 59.30390709 87.73217623 59.30390709 86.52148438 58.29052734 C83.79424159 58.18953247 81.09285914 58.15082205 78.36523438 58.15771484 C77.54776733 58.15675812 76.73030029 58.15580139 75.88806152 58.15481567 C74.1563306 58.15413389 72.42459714 58.15598805 70.69287109 58.16015625 C68.03281955 58.16550455 65.37293687 58.16021122 62.71289062 58.15380859 C61.03450483 58.15446938 59.35611915 58.15575054 57.67773438 58.15771484 C56.87670288 58.15569061 56.07567139 58.15366638 55.25036621 58.15158081 C51.58566137 57.81839067 51.58566137 57.81839067 48.52148438 59.29052734 C48.28955573 60.80522183 48.10933199 62.32807296 47.95898438 63.85302734 C47.87519531 64.67931641 47.79140625 65.50560547 47.70507812 66.35693359 C47.64449219 66.99501953 47.58390625 67.63310547 47.52148438 68.29052734 C22.39155345 67.33539235 -11.30637513 65.60967006 -30.47851562 47.29052734 C-37.3607577 39.43330097 -36.05847313 28.10147519 -35.47851562 18.29052734 C-34.59840639 11.68090702 -31.86519689 8.04532274 -26.90429688 3.70068359 C-18.77678071 -1.02400777 -9.07910718 -0.00649025 0 0 Z " fill="#2F405E" transform="translate(200.478515625,438.70947265625)"/>
<path d="M0 0 C0.7409797 -0.00523668 1.4819594 -0.01047336 2.24539304 -0.01586872 C4.72950683 -0.03087617 7.21341478 -0.03157404 9.6975708 -0.03224182 C11.47826485 -0.0398629 13.25895561 -0.04829031 15.03964233 -0.0574646 C19.87863761 -0.0794237 24.71756968 -0.08821059 29.55660915 -0.09329104 C32.58058612 -0.09693345 35.6045465 -0.10317296 38.62851715 -0.11029243 C49.18051379 -0.13479343 59.73246124 -0.14783989 70.28448486 -0.15138245 C80.11613351 -0.15501652 89.94746975 -0.18490108 99.77902293 -0.22678703 C108.22248171 -0.26149642 116.66583702 -0.27693101 125.10936666 -0.27762848 C130.15109297 -0.27842118 135.19250122 -0.28715637 140.23415375 -0.31562614 C144.9784967 -0.34181728 149.72225817 -0.34400613 154.46664047 -0.3279705 C156.20485833 -0.32615675 157.9431097 -0.33284013 159.68125534 -0.34878922 C175.52659193 -0.48528257 175.52659193 -0.48528257 181.29240799 3.89630032 C187.57455941 10.20993722 187.88993474 16.10096445 187.97589111 24.46165466 C188.00489502 25.38268982 188.03389893 26.30372498 188.06378174 27.25267029 C188.13134825 34.57584083 186.71053245 39.84452697 181.79620361 45.37571716 C165.92013696 57.42175996 145.70415762 60.67949435 126.47589111 63.58665466 C124.77493286 63.84406433 124.77493286 63.84406433 123.03961182 64.10667419 C116.84594169 64.98709066 110.91815541 65.4524848 104.66339111 65.27415466 C104.60280518 64.56388123 104.54221924 63.85360779 104.47979736 63.12181091 C104.35411377 61.74315857 104.35411377 61.74315857 104.22589111 60.33665466 C104.14468018 59.42013123 104.06346924 58.50360779 103.97979736 57.55931091 C103.90294135 55.31255735 103.90294135 55.31255735 102.66339111 54.27415466 C99.94784719 54.16074492 97.25869068 54.10997447 94.54229736 54.10618591 C93.727202 54.10285751 92.91210663 54.09952911 92.0723114 54.09609985 C90.34478318 54.09102724 88.61724513 54.08869163 86.88970947 54.08885193 C84.24053866 54.08666675 81.59178495 54.06851845 78.94268799 54.04954529 C77.26755921 54.04661123 75.59242845 54.04462652 73.91729736 54.04368591 C73.12142715 54.0365004 72.32555695 54.02931488 71.50556946 54.02191162 C67.11631019 53.8639259 67.11631019 53.8639259 63.66339111 56.27415466 C63.20332766 58.47666459 63.20332766 58.47666459 63.03839111 60.89915466 C62.92624268 62.1250531 62.92624268 62.1250531 62.81182861 63.37571716 C62.73835205 64.31544373 62.73835205 64.31544373 62.66339111 65.27415466 C38.0598352 64.26495647 1.7244313 62.55768087 -16.33660889 43.27415466 C-20.53788788 37.44808526 -20.95727562 31.7828805 -20.83660889 24.77415466 C-20.85207764 23.8756781 -20.86754639 22.97720154 -20.88348389 22.05149841 C-20.84815312 15.98343911 -19.78946636 11.32946859 -16.33660889 6.27415466 C-11.15536357 1.35197162 -7.04615111 -0.02462512 0 0 Z " fill="#FCFCFD" transform="translate(1068.3366088867188,453.72584533691406)"/>
<path d="M0 0 C0.70253906 0.00386719 1.40507812 0.00773437 2.12890625 0.01171875 C2.83144531 0.00785156 3.53398437 0.00398438 4.2578125 0 C9.50229247 0.01010497 9.50229247 0.01010497 10.62890625 1.13671875 C10.7876458 3.35359869 10.88024462 5.57527173 10.9453125 7.796875 C10.9660936 8.4613414 10.98687469 9.1258078 11.00828552 9.81040955 C11.07384283 11.93990418 11.1326941 14.06952543 11.19140625 16.19921875 C11.23458564 17.63998722 11.27819974 19.08074274 11.32226562 20.52148438 C11.42953018 24.05975915 11.53077996 27.59817744 11.62890625 31.13671875 C12.55703125 30.49734375 13.48515625 29.85796875 14.44140625 29.19921875 C20.28778035 25.41627081 25.83992679 25.54073964 32.62890625 26.13671875 C40.00413689 28.08606422 44.76001131 33.61973522 48.73046875 39.87109375 C52.36867853 47.55553684 51.84147719 59.29218971 49.37890625 67.26171875 C46.36324628 74.61937062 41.72094745 80.62364111 34.515625 84.1796875 C22.63192016 88.43385411 8.46430784 86.74527476 -3.37109375 83.13671875 C-4.36109375 82.47671875 -5.35109375 81.81671875 -6.37109375 81.13671875 C-6.66290484 78.53943772 -6.75993148 76.18061512 -6.72753906 73.58178711 C-6.72958344 72.8028157 -6.73162781 72.0238443 -6.73373413 71.2212677 C-6.73674896 68.63946264 -6.71824589 66.05829192 -6.69921875 63.4765625 C-6.69616251 61.68819843 -6.69428536 59.89983198 -6.69354248 58.11146545 C-6.68893516 54.36124583 -6.6744919 50.61124044 -6.65234375 46.86108398 C-6.62404062 42.04313815 -6.61313077 37.22536111 -6.60866165 32.40734005 C-6.60451393 28.71430253 -6.59470223 25.02129947 -6.58278656 21.3282795 C-6.57707164 19.55118653 -6.572317 17.77409021 -6.56851959 15.99699211 C-6.56167902 13.5186868 -6.54805779 11.04051795 -6.53222656 8.56225586 C-6.5311087 7.82093414 -6.52999084 7.07961243 -6.52883911 6.31582642 C-6.47679474 0.19446298 -6.13321932 0.01181738 0 0 Z " fill="#2D3F5D" transform="translate(508.37109375,456.86328125)"/>
<path d="M0 0 C1.26972656 0.00257813 2.53945313 0.00515625 3.84765625 0.0078125 C5.11480469 0.00523437 6.38195312 0.00265625 7.6875 0 C10.91015625 0.1328125 10.91015625 0.1328125 12.91015625 1.1328125 C13.24015625 11.0328125 13.57015625 20.9328125 13.91015625 31.1328125 C16.55015625 29.4828125 19.19015625 27.8328125 21.91015625 26.1328125 C28.47237494 24.79713967 34.99743321 25.74655644 40.94140625 28.8046875 C47.52789424 33.24795321 50.96992756 39.68809508 52.59765625 47.3828125 C52.75234375 49.2390625 52.75234375 49.2390625 52.91015625 51.1328125 C52.98621094 51.94621094 53.06226563 52.75960937 53.140625 53.59765625 C53.62630894 62.74689149 50.72984699 70.85176427 45.16015625 78.1328125 C40.14260326 83.46233769 32.70799901 85.90344221 25.546875 86.3359375 C16.0435195 86.44873697 7.08904595 85.81511539 -2.08984375 83.1328125 C-4.57439098 80.64826527 -4.32870768 79.20842439 -4.34979248 75.81817627 C-4.34136322 74.70923004 -4.34136322 74.70923004 -4.33276367 73.57788086 C-4.33466202 72.79890945 -4.33656036 72.01993805 -4.33851624 71.21736145 C-4.34222904 68.63569154 -4.3315136 66.05430127 -4.3203125 63.47265625 C-4.31912098 61.68429091 -4.31866748 59.89592493 -4.31892395 58.1075592 C-4.31735827 54.35739227 -4.30906148 50.60732069 -4.2956543 46.85717773 C-4.27865208 42.039237 -4.27484025 37.22140102 -4.27559948 32.4034338 C-4.27532817 28.71040336 -4.26985344 25.01739602 -4.26259804 21.32437325 C-4.25940597 19.54727923 -4.25744272 17.77018259 -4.25670433 15.99308586 C-4.25454713 13.5147946 -4.24581681 11.0366167 -4.23510742 8.55834961 C-4.23556061 7.81702789 -4.23601379 7.07570618 -4.23648071 6.31192017 C-4.19754373 0.18042539 -4.19754373 0.18042539 0 0 Z " fill="#2C3D5C" transform="translate(569.08984375,456.8671875)"/>
<path d="M0 0 C5.2905259 4.49977114 9.34229625 10.19037438 10.30053711 17.19775391 C10.43791175 19.59891133 10.46757242 21.97016078 10.4375 24.375 C10.42992676 25.21772461 10.42235352 26.06044922 10.41455078 26.92871094 C10.25241102 33.02847968 9.55745882 37.8987383 6 43 C5.61070312 43.6290625 5.22140625 44.258125 4.8203125 44.90625 C0.6647165 50.70933081 -5.23637241 53.23355431 -12 55 C-22.19531398 56.42410735 -30.57988678 55.09418689 -39 49 C-44.669846 43.63389575 -47.59582921 36.79872625 -48.24609375 29.078125 C-48.43810241 20.17795867 -47.83883091 12.06805847 -42 5 C-30.40504302 -6.98145555 -14.53988179 -8.93102531 0 0 Z " fill="#2E3F5E" transform="translate(486,488)"/>
<path d="M0 0 C0.68578125 -0.01224609 1.3715625 -0.02449219 2.078125 -0.03710938 C5.81796797 -0.04802331 7.4349737 0.0608158 10.625 2.1875 C11.56054688 4.65844727 11.56054688 4.65844727 12.34375 7.75390625 C12.78267578 9.44290039 12.78267578 9.44290039 13.23046875 11.16601562 C13.52566406 12.34873047 13.82085938 13.53144531 14.125 14.75 C14.71619935 17.06445511 15.30990523 19.37827157 15.90625 21.69140625 C16.19137451 22.8002417 16.47649902 23.90907715 16.77026367 25.05151367 C17.72575322 28.55715871 18.84129359 31.9750575 20.07348633 35.39208984 C20.78244757 37.70005841 20.85676072 39.79263922 20.625 42.1875 C21.285 42.1875 21.945 42.1875 22.625 42.1875 C22.79044312 41.21067261 22.79044312 41.21067261 22.95922852 40.21411133 C24.21665805 33.02416108 25.79566851 25.95567732 27.5625 18.875 C27.81451172 17.83021484 28.06652344 16.78542969 28.32617188 15.70898438 C31.37698287 3.43551713 31.37698287 3.43551713 34.625 0.1875 C37.15549402 0.11436433 39.65804837 0.09502473 42.1875 0.125 C43.25387695 0.13176758 43.25387695 0.13176758 44.34179688 0.13867188 C46.10290013 0.15049136 47.86396036 0.16842737 49.625 0.1875 C50.66226734 3.36316686 50.58097533 5.19617879 49.53271484 8.35083008 C49.26848724 9.16300491 49.00425964 9.97517975 48.73202515 10.81196594 C48.28846176 12.12127327 48.28846176 12.12127327 47.8359375 13.45703125 C47.38548569 14.82682381 47.38548569 14.82682381 46.92593384 16.22428894 C45.96033994 19.1528457 44.98040416 22.07637216 44 25 C43.36233253 26.92611847 42.72560381 28.85254798 42.08984375 30.77929688 C40.85236306 34.52418302 39.60726413 38.26638625 38.35498047 42.00634766 C37.27368516 45.23642129 36.20309864 48.46947155 35.14892578 51.70849609 C34.81436874 52.73084602 34.81436874 52.73084602 34.47305298 53.77384949 C33.89299645 55.54854791 33.31645199 57.32439322 32.74023438 59.1003418 C29.34379353 68.50226702 24.49154927 77.12170868 15.42578125 81.859375 C11.35341796 83.51402572 7.59516607 83.56553436 3.25 83.4375 C2.52683594 83.43234375 1.80367187 83.4271875 1.05859375 83.421875 C-4.21985119 83.34264881 -4.21985119 83.34264881 -5.375 82.1875 C-5.47373816 80.18950428 -5.50471799 78.18792842 -5.5 76.1875 C-5.50257813 75.094375 -5.50515625 74.00125 -5.5078125 72.875 C-5.375 70.1875 -5.375 70.1875 -4.375 69.1875 C-2.2942141 68.91711539 -0.21021701 68.67126872 1.875 68.4375 C6.11600377 67.80576231 8.26958628 67.43838027 11.8125 64.9375 C13.70410583 62.06747736 14.77484038 59.51085125 15.625 56.1875 C14.8825 55.960625 14.14 55.73375 13.375 55.5 C8.68780852 53.26293134 6.67957642 49.6978027 4.90161133 44.96728516 C4.32586293 43.30744787 3.76159262 41.64359811 3.20703125 39.9765625 C2.7529615 38.64702042 2.7529615 38.64702042 2.28971863 37.2906189 C1.65380888 35.42132154 1.0229084 33.55031349 0.39672852 31.67773438 C-0.55830648 28.82502613 -1.53074764 25.97871238 -2.50585938 23.1328125 C-3.12343843 21.31024879 -3.74000854 19.48734282 -4.35546875 17.6640625 C-4.64399216 16.81905182 -4.93251556 15.97404114 -5.2297821 15.10342407 C-6.77362655 10.45877452 -7.96557622 6.07567445 -8.375 1.1875 C-6.40200486 -0.78549514 -2.69011482 0.00250011 0 0 Z " fill="#2C3E5C" transform="translate(631.375,483.8125)"/>
<path d="M0 0 C1.61283623 -0.00855011 1.61283623 -0.00855011 3.258255 -0.01727295 C5.53015161 -0.02669927 7.80206173 -0.03324749 10.07397461 -0.03710938 C13.52156907 -0.04679295 16.96856142 -0.07783063 20.41601562 -0.109375 C22.63150691 -0.11590821 24.84700242 -0.12115743 27.0625 -0.125 C28.58963875 -0.1435202 28.58963875 -0.1435202 30.14762878 -0.16241455 C40.25872559 -0.13147742 49.08300782 1.61708775 56.91796875 8.23046875 C61.34286386 12.71756119 64.76106245 17.91985712 64.9609375 24.33984375 C64.92838542 27.62760417 64.89583333 30.91536458 64.86328125 34.203125 C58.59328125 34.203125 52.32328125 34.203125 45.86328125 34.203125 C45.36828125 29.748125 45.36828125 29.748125 44.86328125 25.203125 C43.20854177 21.95957279 43.20854177 21.95957279 39.86328125 20.203125 C35.96041652 19.49685448 32.1331162 19.52634483 28.17578125 19.57421875 C27.04052002 19.57180679 25.90525879 19.56939484 24.7355957 19.56690979 C22.33834333 19.56788812 19.94106833 19.58127804 17.54394531 19.60620117 C13.8761718 19.64050444 10.21080814 19.62685837 6.54296875 19.60742188 C4.21222933 19.61432046 1.88149613 19.62399294 -0.44921875 19.63671875 C-1.54516357 19.63175888 -2.6411084 19.62679901 -3.77026367 19.62168884 C-9.83317876 19.70406384 -9.83317876 19.70406384 -15.32299805 22.0637207 C-17.61770561 24.77048102 -17.82363482 26.43677492 -17.94921875 29.953125 C-18.01109375 31.685625 -18.07296875 33.418125 -18.13671875 35.203125 C-24.40671875 35.203125 -30.67671875 35.203125 -37.13671875 35.203125 C-37.90761748 18.08917324 -37.90761748 18.08917324 -32.13671875 11.203125 C-22.83876978 1.28271919 -13.09923485 0.05414259 0 0 Z " fill="#314361" transform="translate(254.13671875,396.796875)"/>
<path d="M0 0 C1.74676025 -0.00430527 1.74676025 -0.00430527 3.52880859 -0.00869751 C5.97949716 -0.0107299 8.43020226 -0.00525814 10.88085938 0.00732422 C14.61365326 0.02338867 18.34536445 0.00744629 22.078125 -0.01171875 C24.46875237 -0.00973617 26.85937907 -0.0058922 29.25 0 C30.90974854 -0.00910904 30.90974854 -0.00910904 32.60302734 -0.0184021 C41.93899414 0.06556795 50.7111904 1.66613603 57.625 8.3984375 C64.27656062 16.92684931 64.7313608 22.65599659 64.625 33.3984375 C58.685 33.3984375 52.745 33.3984375 46.625 33.3984375 C46.20182292 30.89192708 45.77864583 28.38541667 45.35546875 25.87890625 C44.55536292 23.16196934 43.84997616 22.10622792 41.625 20.3984375 C38.73709092 19.43580114 36.86971475 19.2614715 33.86572266 19.23730469 C32.90107086 19.22769714 31.93641907 19.2180896 30.9425354 19.20819092 C29.90188934 19.20394104 28.86124329 19.19969116 27.7890625 19.1953125 C26.18180801 19.18676239 26.18180801 19.18676239 24.54208374 19.17803955 C22.27415962 19.16859012 20.00622178 19.1620558 17.73828125 19.15820312 C14.27058962 19.14849514 10.80349006 19.11746966 7.3359375 19.0859375 C5.13281602 19.0794076 2.9296903 19.07415708 0.7265625 19.0703125 C-0.82833389 19.0517923 -0.82833389 19.0517923 -2.41464233 19.03289795 C-9.4105497 18.99056402 -9.4105497 18.99056402 -15.375 22.3984375 C-16.52314997 24.69473744 -16.68269809 26.47541836 -16.9375 29.0234375 C-17.081875 30.4671875 -17.22625 31.9109375 -17.375 33.3984375 C-23.315 33.3984375 -29.255 33.3984375 -35.375 33.3984375 C-36.23220982 18.68300231 -36.23220982 18.68300231 -31.20703125 12.36328125 C-21.76775385 2.23970656 -13.77429634 -0.07559615 0 0 Z " fill="#E3E3E3" transform="translate(1137.375,415.6015625)"/>
<path d="M0 0 C1.8871875 0.00773437 1.8871875 0.00773437 3.8125 0.015625 C5.070625 0.01046875 6.32875 0.0053125 7.625 0 C10.8125 0.265625 10.8125 0.265625 12.8125 2.265625 C13.06646729 4.7613678 13.06646729 4.7613678 13.07128906 7.94946289 C13.07759338 9.14152847 13.08389771 10.33359406 13.09039307 11.56178284 C13.0863446 12.85752731 13.08229614 14.15327179 13.078125 15.48828125 C13.07947277 16.83149791 13.08141424 18.17471409 13.08392334 19.51792908 C13.08687643 22.34004335 13.08257587 25.16203126 13.07324219 27.98413086 C13.06192402 31.579468 13.06835684 35.174504 13.08038712 38.76982975 C13.08766658 41.54874373 13.08528878 44.32758819 13.08013153 47.10650444 C13.07816832 49.0699521 13.08419061 51.03340258 13.09039307 52.99684143 C13.04009108 62.6843526 12.54691034 71.20645371 6.8125 79.265625 C0.59315573 84.97047364 -5.95278219 86.6168992 -14.3125 86.578125 C-15.36630859 86.60229492 -15.36630859 86.60229492 -16.44140625 86.62695312 C-19.51247261 86.62985583 -21.86679404 86.41785884 -24.65625 85.09375 C-26.76537598 82.57571184 -26.65761911 80.95014548 -26.5625 77.703125 C-26.54960937 76.73246094 -26.53671875 75.76179687 -26.5234375 74.76171875 C-26.1875 72.265625 -26.1875 72.265625 -24.1875 70.265625 C-21.18347021 70.16356786 -18.23156948 70.33543016 -15.23046875 70.48828125 C-11.71245271 70.23086544 -9.96139365 69.41203104 -7.1875 67.265625 C-6.111723 64.03829401 -6.04357744 61.66042792 -6.01391602 58.26538086 C-5.99368126 56.41347389 -5.99368126 56.41347389 -5.97303772 54.52415466 C-5.96797777 53.86523161 -5.96291782 53.20630856 -5.95770454 52.52741814 C-5.9412754 50.46403506 -5.91803954 48.40083275 -5.89280701 46.33753967 C-5.8220656 40.47210701 -5.76179251 34.60660299 -5.71069336 28.7409668 C-5.67894955 25.15179937 -5.63769347 21.56284424 -5.59049797 17.97384834 C-5.57445856 16.60511643 -5.56214595 15.23633569 -5.55359077 13.86753654 C-5.54147306 11.95710516 -5.51629448 10.04676999 -5.49047852 8.13647461 C-5.48017105 7.04854111 -5.46986359 5.9606076 -5.45924377 4.83970642 C-5.0374385 0.84417378 -3.92434693 0.32702891 0 0 Z " fill="#2E3F5D" transform="translate(419.1875,456.734375)"/>
<path d="M0 0 C1.21839821 -0.00074776 1.21839821 -0.00074776 2.46141052 -0.00151062 C4.17701669 0.00082842 5.89262639 0.01054697 7.6081543 0.02709961 C10.2397311 0.05072413 12.87029701 0.04765563 15.50195312 0.04101562 C17.16797481 0.04659135 18.83399222 0.05370057 20.5 0.0625 C21.2895961 0.06158859 22.0791922 0.06067719 22.89271545 0.05973816 C28.45255583 0.13224333 28.45255583 0.13224333 30.68359375 2.36328125 C31.08307846 6.76329462 31.01260936 11.17786287 30.99926758 15.59399414 C30.99611058 17.78908046 31.01955136 19.9828151 31.04492188 22.17773438 C31.04719518 23.57161288 31.04789822 24.96549502 31.046875 26.359375 C31.04985596 27.62966553 31.05283691 28.89995605 31.0559082 30.20874023 C30.68359375 33.36328125 30.68359375 33.36328125 29.66479492 35.27612305 C26.47507364 37.02644084 23.16732763 36.78995936 19.62109375 36.76171875 C18.43954712 36.76602402 18.43954712 36.76602402 17.23413086 36.77041626 C15.5698169 36.77245647 13.90547894 36.76692957 12.24121094 36.75439453 C9.69281428 36.73833934 7.14600354 36.75424369 4.59765625 36.7734375 C2.98046525 36.77145506 1.36327523 36.76761136 -0.25390625 36.76171875 C-1.3977478 36.77082779 -1.3977478 36.77082779 -2.56469727 36.78012085 C-5.44248773 36.74183674 -7.74913081 36.67946068 -10.29541016 35.26025391 C-11.8512671 32.36952974 -11.70580153 29.87881497 -11.71484375 26.61328125 C-11.71771393 25.95875977 -11.72058411 25.30423828 -11.72354126 24.62988281 C-11.72557993 23.24803806 -11.72006371 21.86616432 -11.70751953 20.484375 C-11.69146061 18.37043675 -11.70737226 16.25841012 -11.7265625 14.14453125 C-11.72458003 12.80077703 -11.72073627 11.45702401 -11.71484375 10.11328125 C-11.71145996 8.89125 -11.70807617 7.66921875 -11.70458984 6.41015625 C-11.31640625 3.36328125 -11.31640625 3.36328125 -10.3112793 1.46411133 C-7.05168262 -0.33463074 -3.62672471 -0.04241037 0 0 Z " fill="#2764A2" transform="translate(1142.31640625,506.63671875)"/>
<path d="M0 0 C4.00081712 2.11363923 6.40887302 3.75699471 8 8 C8.86780916 16.19373301 8.75918845 23.12561668 4 30 C0.99485292 31.9456401 -1.45164493 32.29627277 -5 32.3125 C-5.845625 32.32925781 -6.69125 32.34601562 -7.5625 32.36328125 C-10.57244987 31.91468295 -11.79814441 31.08509701 -14 29 C-14.83638222 25.44891631 -14.60247799 21.82549715 -14.5625 18.1875 C-14.58634766 17.20201172 -14.61019531 16.21652344 -14.63476562 15.20117188 C-14.62539603 10.55073094 -14.59987089 7.07074021 -11.58984375 3.36328125 C-7.62413131 -0.25550612 -5.36134574 -0.44677881 0 0 Z " fill="#E3E3E3" transform="translate(533,497)"/>
<path d="M0 0 C3.16822478 2.28857649 4.7265577 5.05346897 5.8125 8.8125 C5.874375 9.864375 5.93625 10.91625 6 12 C6.07541016 13.07314453 6.07541016 13.07314453 6.15234375 14.16796875 C6.36400472 19.22243271 5.90969167 22.68562959 3 27 C0.18485082 30.05644768 -1.91109558 31.26898845 -6 31.5 C-10.07901374 31.26911243 -12.2303177 30.09552728 -15 27 C-17.73660352 20.31266605 -18.66193974 11.76308502 -16.2421875 4.828125 C-12.32449698 -1.40316228 -6.58457097 -2.00706174 0 0 Z " fill="#E3E3E3" transform="translate(473,498)"/>
<path d="M0 0 C2.73578174 2.19118819 4.43292956 4.86585911 6 8 C6.57238172 15.96931473 6.78166998 22.43048211 1.5 28.8125 C-1.26036123 30.99778597 -4.04832045 31.18141627 -7.4375 31.25 C-8.19933594 31.27578125 -8.96117187 31.3015625 -9.74609375 31.328125 C-12.64844461 30.90559905 -13.87227787 30.00515875 -16 28 C-16.83638222 24.44891631 -16.60247799 20.82549715 -16.5625 17.1875 C-16.58634766 16.20201172 -16.61019531 15.21652344 -16.63476562 14.20117188 C-16.62539603 9.55073094 -16.59987089 6.07074021 -13.58984375 2.36328125 C-9.19252111 -1.64935857 -5.63516127 -1.61560755 0 0 Z " fill="#E3E3E3" transform="translate(598,498)"/>
<path d="M0 0 C0 3 0 3 -1.3125 4.60546875 C-1.869375 5.12753906 -2.42625 5.64960938 -3 6.1875 C-3.556875 6.71730469 -4.11375 7.24710937 -4.6875 7.79296875 C-5.120625 8.19128906 -5.55375 8.58960938 -6 9 C-6.66 8.67 -7.32 8.34 -8 8 C-7.04578192 6.85073734 -6.08647955 5.70569459 -5.125 4.5625 C-4.59132812 3.92441406 -4.05765625 3.28632813 -3.5078125 2.62890625 C-2 1 -2 1 0 0 Z " fill="#344662" transform="translate(228,403)"/>
</svg>
